PathFileType	4	(X/Y/Z)	Run_300 01
DataRate	CameraRate	NumFrames	NumMarkers	Units	OrigDataRate	OrigDataStartFrame	OrigNumFrames
120	120	4	42	mm	120	163	128
Frame#	Time	LASI			LPSI			RPSI			RTH1			RTH2			RTH3			LTH1			LTH2			LTH3			RTB1			RTB2			RTB3			LTB1			LTB2			RCAL			RTOE			RMT5			LCAL			LMT5			LACR			RACR			CLAV			C7			RUA1			RUA2			RUA3			RLEL			RMEL			LUA1			LUA2			LUA3			LLEL			LMEL			RFAsuperior			RFAradius			RFAulna			LFAsuperior			LFAradius			LFAulna			LTB3			LTOE			RASI		
		X1	Y1	Z1	X2	Y2	Z2	X3	Y3	Z3	X4	Y4	Z4	X5	Y5	Z5	X6	Y6	Z6	X7	Y7	Z7	X8	Y8	Z8	X9	Y9	Z9	X10	Y10	Z10	X11	Y11	Z11	X12	Y12	Z12	X13	Y13	Z13	X14	Y14	Z14	X15	Y15	Z15	X16	Y16	Z16	X17	Y17	Z17	X18	Y18	Z18	X19	Y19	Z19	X20	Y20	Z20	X21	Y21	Z21	X22	Y22	Z22	X23	Y23	Z23	X24	Y24	Z24	X25	Y25	Z25	X26	Y26	Z26	X27	Y27	Z27	X28	Y28	Z28	X29	Y29	Z29	X30	Y30	Z30	X31	Y31	Z31	X32	Y32	Z32	X33	Y33	Z33	X34	Y34	Z34	X35	Y35	Z35	X36	Y36	Z36	X37	Y37	Z37	X38	Y38	Z38	X39	Y39	Z39	X40	Y40	Z40	X41	Y41	Z41	X42	Y42	Z42	

163	  1.358333	750.123468	993.322949	-508.301115	579.752342	1016.754634	-406.639025	584.878307	1017.441208	-322.673788	772.028981	833.033786	-202.690527	886.402799	757.561645	-219.580520	876.871694	623.798253	-202.289461	692.029949	851.052465	-541.602666	733.673215	733.353811	-524.542289	645.126475	602.353117	-512.208237	844.738782	451.578817	-267.778675	766.787441	455.425380	-217.067763	678.003244	390.420518	-288.881486	630.919070	358.394672	-432.266413	544.229567	279.226857	-476.628187	514.291465	434.663598	-296.122478	582.551585	225.954350	-311.073038	544.238130	243.375229	-221.986078	361.491491	130.342520	-398.200877	535.878692	 59.009278	-476.754273	759.257064	1425.294594	-575.187783	713.972789	1459.215423	-201.913574	833.681224	1409.202270	-345.860812	705.839689	1498.987941	-398.690510	656.722629	1370.410000	-136.252962	653.821745	1299.678231	-129.219717	550.848421	1316.856371	-112.570892	551.796034	1230.304553	-63.779627	505.863278	1218.576767	-139.237486	737.488694	1351.044149	-631.015546	678.712510	1279.686553	-622.017541	732.372486	1265.954775	-675.806273	726.818099	1166.193531	-727.646374	688.170114	1110.607249	-668.442631	622.580387	1183.696427	-78.971602	753.266841	1110.294320	-152.992684	704.392191	1061.331986	-150.440546	794.711115	1178.207327	-699.800626	913.478615	1187.266489	-569.810628	933.892830	1134.818452	-606.935699	526.027796	202.200965	-403.254800	572.000479	 72.699996	-392.673340	751.153603	1003.323418	-257.457778	
164	  1.366667	751.272798	996.432336	-509.268349	581.530818	1022.017558	-407.244542	586.722499	1023.507130	-322.671443	776.257419	841.481670	-203.001020	891.188285	767.949332	-220.831952	884.451563	632.950026	-203.584985	690.135425	854.360629	-540.853835	726.737107	735.947298	-523.472295	632.184818	608.711776	-510.806955	860.479589	456.505472	-269.830939	782.485959	454.037589	-219.094630	698.160890	382.366448	-290.022379	611.065490	364.668275	-432.410920	523.610422	287.140445	-478.138605	531.554314	413.480897	-298.903354	617.448873	211.489739	-313.257476	578.116895	225.860970	-224.181383	341.461739	139.390871	-400.955046	510.794905	 59.105100	-476.445467	763.359293	1432.454330	-573.313820	710.918422	1465.330549	-201.755383	833.124826	1415.969626	-342.931029	706.250002	1504.625058	-397.691684	652.062981	1378.396090	-136.507755	648.705347	1307.753317	-128.726458	545.283840	1325.659154	-114.672139	544.428116	1239.892972	-65.405451	499.478447	1227.648579	-141.860796	742.911806	1358.241904	-629.748237	683.395785	1287.606115	-623.088135	739.267940	1272.925816	-674.547938	733.288059	1172.964726	-725.815475	691.420768	1118.249963	-667.359910	615.793665	1194.033282	-78.134113	747.929382	1119.814329	-148.126316	699.458695	1070.689658	-146.526024	800.113067	1185.335194	-696.088660	914.680971	1196.186601	-562.901645	935.750419	1142.888068	-597.793448	505.478485	208.446583	-405.275275	548.895667	 73.248490	-393.512996	752.371631	1010.062244	-258.270530	
165	  1.375000	752.777899	999.811586	-509.723618	583.856298	1027.541900	-408.257530	588.446736	1029.743227	-322.801023	780.283047	849.794852	-203.344200	895.457869	777.822078	-222.095506	890.688274	641.461825	-204.972315	688.327380	857.931780	-540.141680	720.340827	738.983095	-522.462031	620.458332	615.603987	-509.708066	875.216618	461.027222	-271.996660	797.667584	451.903451	-221.335770	718.979493	373.653348	-291.617287	592.551799	372.108571	-433.070739	504.461255	296.163541	-480.146206	550.221870	391.091716	-302.355809	653.474795	197.473668	-314.739303	613.107572	209.108983	-225.942993	322.710690	149.702390	-404.144065	486.172185	 59.300179	-476.277280	767.319596	1439.714229	-571.287540	708.123751	1471.430423	-201.484916	832.494112	1422.802274	-340.050353	706.769595	1510.352446	-396.643435	647.915514	1386.204646	-136.719336	644.146229	1315.711533	-128.131447	540.398049	1334.265965	-116.612257	537.696577	1249.261178	-66.849474	493.641099	1236.486816	-144.165859	748.065188	1365.885290	-628.499321	687.861818	1296.043763	-624.402649	745.635398	1280.367953	-673.358645	739.169351	1180.416775	-724.362261	693.931162	1126.458901	-667.152667	609.492380	1203.963833	-77.210073	742.981769	1129.217295	-143.628305	694.988597	1079.779244	-142.418796	804.999591	1192.967032	-693.140923	914.956511	1205.056297	-556.289184	936.510280	1150.828656	-588.981826	485.897283	215.822001	-407.194672	526.123205	 73.620454	-394.590410	753.356183	1016.936448	-259.370281	
166	  1.383333	754.538729	1003.368715	-509.698281	586.512252	1033.291481	-409.461537	590.212039	1036.097870	-323.180613	784.157824	857.935776	-203.500400	899.147823	786.925353	-223.296270	895.395052	649.296472	-206.654073	686.702170	861.700504	-539.464526	714.682439	742.253932	-521.360021	609.815691	622.885385	-508.867045	888.869352	465.079738	-274.225418	812.304025	449.063821	-223.733104	740.443070	364.661663	-293.950446	575.570765	380.315630	-434.172179	486.972360	305.809197	-482.507650	570.391093	367.732820	-306.407730	690.631560	184.095263	-315.520419	648.890998	193.212732	-227.225647	305.415829	161.113341	-407.861110	462.191281	 59.648480	-476.396930	771.252137	1446.944938	-569.172332	705.672944	1477.378863	-201.158680	831.829830	1429.488534	-337.249369	707.427971	1516.075438	-395.632875	644.263426	1393.696846	-136.861356	640.127250	1323.359615	-127.461660	536.139036	1342.544428	-118.398569	531.619257	1258.288302	-68.099284	488.726772	1244.911442	-146.255933	753.052731	1373.761582	-627.292499	692.085025	1304.856784	-625.879251	751.451811	1288.048707	-672.099855	744.506336	1188.322114	-723.329368	695.878117	1135.014906	-667.690971	603.679195	1213.385836	-76.237620	738.502923	1138.330680	-139.421388	691.008405	1088.487537	-138.187383	809.403955	1200.849990	-690.791868	914.454990	1213.738028	-550.147324	936.297274	1158.559091	-580.729215	467.689294	224.035241	-409.359661	503.699851	 73.914737	-395.768872	754.416671	1023.969774	-260.874999	
